<svg viewBox="0 0 24 24" height="24" width="24" xmlns="http://www.w3.org/2000/svg"><path d="M0.500 11.985 A11.500 11.500 0 1 0 23.500 11.985 A11.500 11.500 0 1 0 0.500 11.985 Z" fill="none" stroke="#000" stroke-linecap="round" stroke-linejoin="round"    />,<path d="M.673,9.985H6.757a3,3,0,0,1,2.122.878L10,11.984a3,3,0,0,1,.121,4.115L8.758,17.632A3,3,0,0,0,8,19.625V22.77" fill="none" stroke="#000" stroke-linecap="round" stroke-linejoin="round"    />,<path d="M20.261,3.985h-5.8a2.25,2.25,0,0,0,0,4.5h.432a3,3,0,0,1,2.5,1.335l2.218,3.329a3,3,0,0,0,2.5,1.336h1.121" fill="none" stroke="#000" stroke-linecap="round" stroke-linejoin="round"    /></svg>