<svg viewBox="0 0 24 24" height="24" width="24" xmlns="http://www.w3.org/2000/svg"><path d="M20,12.5l-.383-6c0-4-15.234-4-15.234,0L4,12.5" fill="none" stroke="#000" stroke-linecap="round" stroke-linejoin="round"    />,<path d="M21,20.5V22a.5.5,0,0,1-.5.5h-2A.5.5,0,0,1,18,22V20.5" fill="none" stroke="#000" stroke-linecap="round" stroke-linejoin="round"    />,<path d="M6,20.5V22a.5.5,0,0,1-.5.5h-2A.5.5,0,0,1,3,22V20.5" fill="none" stroke="#000" stroke-linecap="round" stroke-linejoin="round"    />,<path d="M8.5,3.8l.872-2a.5.5,0,0,1,.458-.3h4.345a.5.5,0,0,1,.458.3l.872,2" fill="none" stroke="#000" stroke-linecap="round" stroke-linejoin="round"    />,<path d="M16 20.5L8 20.5" fill="none" stroke="#000" stroke-linecap="round" stroke-linejoin="round"    />,<path d="M8,17.5c0-2.667,8-2.667,8,0" fill="none" stroke="#000" stroke-linecap="round" stroke-linejoin="round"    />,<path d="M16,14.5a2,2,0,0,1,2-2h2a2,2,0,0,1,2,2V20a.5.5,0,0,1-.5.5H16Z" fill="none" stroke="#000" stroke-linecap="round" stroke-linejoin="round"    />,<path d="M2,14.5a2,2,0,0,1,2-2H6a2,2,0,0,1,2,2v6H2.5A.5.5,0,0,1,2,20Z" fill="none" stroke="#000" stroke-linecap="round" stroke-linejoin="round"    />,<path d="M17.500 16.000 A1.500 1.500 0 1 0 20.500 16.000 A1.500 1.500 0 1 0 17.500 16.000 Z" fill="none" stroke="#000" stroke-linecap="round" stroke-linejoin="round"    />,<path d="M3.500 16.000 A1.500 1.500 0 1 0 6.500 16.000 A1.500 1.500 0 1 0 3.500 16.000 Z" fill="none" stroke="#000" stroke-linecap="round" stroke-linejoin="round"    />,<path d="M10 20.5L10 18" fill="none" stroke="#000" stroke-linecap="round" stroke-linejoin="round"    />,<path d="M12 20.5L12 18" fill="none" stroke="#000" stroke-linecap="round" stroke-linejoin="round"    />,<path d="M14 20.5L14 18" fill="none" stroke="#000" stroke-linecap="round" stroke-linejoin="round"    />,<path d="M20,12.5a15.4,15.4,0,0,0-8-2,15.389,15.389,0,0,0-8,2" fill="none" stroke="#000" stroke-linecap="round" stroke-linejoin="round"    /></svg>