<svg viewBox="0 0 140 140" height="140" width="140" xmlns="http://www.w3.org/2000/svg">,,,,,<g transform="matrix(5.833333333333333,0,0,5.833333333333333,0,0)"><path d="M23.5,17.435a2.864,2.864,0,0,0-3-2.935,2.864,2.864,0,0,0-3,2.935c0,2.077,1.714,4.779,3,6.065C21.786,22.214,23.5,19.858,23.5,17.435Z" fill="none" stroke="#000" stroke-linecap="round" stroke-linejoin="round"></path><path d="M23.5,13.015a4.518,4.518,0,0,0-2.194-3.874,3.5,3.5,0,0,0-3.649-4.623A6,6,0,0,0,6,6.5,5.515,5.515,0,0,0,6,17.529" fill="none" stroke="#000" stroke-linecap="round" stroke-linejoin="round"></path><path d="M19.500 17.500 A1.000 1.000 0 1 0 21.500 17.500 A1.000 1.000 0 1 0 19.500 17.500 Z" fill="none" stroke="#000" stroke-linecap="round" stroke-linejoin="round"></path><path d="M9 16L7 20.5" fill="none" stroke="#000" stroke-linecap="round" stroke-linejoin="round"></path><path d="M12 16L10 20.5" fill="none" stroke="#000" stroke-linecap="round" stroke-linejoin="round"></path><path d="M15 16L13 20.5" fill="none" stroke="#000" stroke-linecap="round" stroke-linejoin="round"></path></g></svg>