<svg viewBox="0 0 24 24" height="24" width="24" xmlns="http://www.w3.org/2000/svg"><path d="M0.500 12.000 A11.500 11.500 0 1 0 23.500 12.000 A11.500 11.500 0 1 0 0.500 12.000 Z" fill="none" stroke="#000" stroke-linecap="round" stroke-linejoin="round"    />,<path d="M13.414,13.414a2,2,0,0,1-2.828-2.828c.781-.781,8.132-5.3,8.132-5.3S14.2,12.633,13.414,13.414Z" fill="none" stroke="#000" stroke-linecap="round" stroke-linejoin="round"    />,<path d="M3.5 12L5 12" fill="none" stroke="#000" stroke-linecap="round" stroke-linejoin="round"    />,<path d="M5.99 5.99L7.05 7.05" fill="none" stroke="#000" stroke-linecap="round" stroke-linejoin="round"    />,<path d="M12 3.5L12 5" fill="none" stroke="#000" stroke-linecap="round" stroke-linejoin="round"    />,<path d="M20.5 12L19 12" fill="none" stroke="#000" stroke-linecap="round" stroke-linejoin="round"    />,<path d="M20.633,19.6A14.708,14.708,0,0,0,12,17a14.708,14.708,0,0,0-8.633,2.6" fill="none" stroke="#000" stroke-linecap="round" stroke-linejoin="round"    /></svg>