<?xml version="1.0" standalone="no"?>
<!DOCTYPE svg PUBLIC "-//W3C//DTD SVG 20010904//EN"
 "http://www.w3.org/TR/2001/REC-SVG-20010904/DTD/svg10.dtd">
<svg version="1.0" xmlns="http://www.w3.org/2000/svg"
 width="1151.000000pt" height="1280.000000pt" viewBox="0 0 1151.000000 1280.000000"
 preserveAspectRatio="xMidYMid meet">
<metadata>
Created by potrace 1.15, written by Peter Selinger 2001-2017
</metadata>
<g transform="translate(0.000000,1280.000000) scale(0.100000,-0.100000)"
fill="#000000" stroke="none">
<path d="M4701 12785 c-265 -38 -613 -163 -756 -271 -309 -234 -513 -543 -610
-922 -43 -174 -58 -323 -52 -557 6 -249 22 -350 77 -476 204 -470 572 -863
1100 -1171 307 -180 618 -302 1051 -412 702 -180 1390 -438 1611 -606 232
-176 351 -537 318 -960 -19 -232 -51 -382 -124 -570 -175 -450 -602 -854
-1136 -1072 l-115 -47 -3 -295 c-1 -163 0 -296 2 -296 17 0 200 47 300 76 496
148 972 411 1292 714 213 202 318 338 427 555 174 348 280 689 318 1024 18
158 7 445 -20 541 -123 430 -411 802 -802 1035 -263 156 -967 351 -1734 481
-528 89 -1070 311 -1448 592 -115 85 -283 248 -347 336 -145 199 -244 622
-210 901 29 239 101 423 239 609 61 83 301 226 481 286 235 79 507 81 727 6
159 -54 315 -160 398 -271 55 -74 128 -211 149 -284 16 -55 21 -147 10 -188
-4 -13 -39 -46 -83 -77 -101 -71 -173 -136 -196 -179 -18 -34 -18 -38 -1 -144
45 -280 186 -574 397 -828 88 -106 226 -235 250 -235 27 0 101 29 122 48 23
20 101 173 156 306 104 250 171 542 174 756 2 85 -1 101 -26 152 -36 74 -118
148 -219 199 -87 44 -112 73 -123 146 -9 60 -75 264 -124 386 -30 74 -56 117
-105 176 -228 274 -518 452 -844 521 -131 28 -379 35 -521 15z"/>
<path d="M121 8116 c138 -134 264 -226 374 -270 63 -26 84 -29 215 -32 283 -8
563 -75 879 -213 264 -115 606 -336 831 -536 216 -193 555 -437 810 -583 532
-303 1177 -530 1780 -626 130 -21 346 -46 398 -46 l42 0 0 -1019 0 -1019 26
-17 c113 -74 326 -73 440 2 l24 15 0 1057 0 1056 73 29 c416 165 763 426 960
724 109 164 197 386 233 587 25 145 29 377 9 535 -18 144 -60 330 -95 423
l-21 57 -3552 0 -3552 -1 126 -123z"/>
<path d="M8540 8232 c0 -5 9 -34 19 -65 31 -90 52 -208 59 -341 20 -362 -47
-722 -223 -1191 -4 -11 6 -4 21 15 68 83 187 211 264 283 481 453 1217 812
1900 927 441 75 757 195 899 344 l35 36 -1487 0 c-818 0 -1487 -4 -1487 -8z"/>
<path d="M5200 5655 c-8 -2 -49 -9 -90 -15 -143 -24 -304 -90 -455 -188 -104
-68 -288 -257 -369 -379 -77 -117 -159 -273 -206 -394 -28 -72 -33 -101 -37
-199 -24 -519 284 -976 854 -1268 192 -98 253 -118 408 -133 207 -21 720 -18
905 4 415 50 743 155 984 315 217 144 429 438 521 722 33 103 44 252 25 338
-17 80 -72 180 -133 242 -148 152 -318 208 -658 217 -268 8 -478 -22 -738
-102 l-121 -38 0 -197 0 -197 98 25 c81 21 122 25 252 26 141 1 159 -1 196
-21 47 -25 113 -107 146 -179 34 -76 31 -171 -9 -254 -48 -102 -114 -167 -231
-228 -120 -63 -327 -133 -467 -158 -137 -25 -415 -25 -540 -1 -410 80 -634
241 -731 522 -24 69 -28 96 -28 195 0 125 11 181 65 322 27 69 44 95 98 152
86 89 214 185 311 232 l77 38 6 180 c4 98 7 235 7 303 l0 123 -62 -1 c-35 -1
-70 -3 -78 -4z"/>
<path d="M5235 4410 c-44 -22 -103 -59 -131 -82 -96 -79 -181 -200 -170 -241
6 -25 122 -156 166 -187 l29 -21 101 67 100 67 0 219 c0 120 -3 218 -7 218 -5
0 -44 -18 -88 -40z"/>
<path d="M4500 3152 c-106 -280 -88 -564 51 -821 78 -146 175 -264 307 -377
241 -206 967 -371 1807 -413 217 -11 300 -34 446 -127 77 -48 213 -71 226 -38
10 26 -26 80 -99 149 -168 159 -422 258 -794 310 -227 32 -681 127 -819 172
-328 106 -538 354 -600 708 -8 48 -15 116 -15 150 0 57 -2 63 -22 68 -30 8
-249 133 -370 212 l-97 64 -21 -57z"/>
<path d="M5450 2569 l0 -330 133 -64 c150 -71 240 -104 309 -112 l48 -6 0 422
0 421 -245 0 -245 0 0 -331z"/>
<path d="M5448 1198 l-3 -363 -29 -60 c-72 -146 -272 -265 -446 -265 -162 0
-405 -67 -617 -170 -196 -96 -313 -123 -592 -140 -204 -13 -323 -31 -494 -75
-117 -30 -365 -110 -376 -121 -2 -2 1294 -4 2880 -3 l2884 1 -90 43 c-113 55
-326 127 -492 166 -109 26 -157 32 -323 38 -247 10 -282 20 -513 145 -192 104
-337 140 -623 155 -180 10 -243 27 -332 88 -80 55 -137 126 -197 248 -64 131
-99 247 -121 404 -8 64 -17 130 -20 146 l-4 30 -122 17 c-102 15 -278 52 -350
74 -16 5 -17 -22 -20 -358z"/>
</g>
</svg>
